<svg width="2057" height="172" viewBox="0 0 2057 172" fill="none" xmlns="http://www.w3.org/2000/svg">
<path fill-rule="evenodd" clip-rule="evenodd" d="M376.223 0.461426H317.977C270.311 0.461426 223.568 31.3069 223.595 78.3481V93.676C223.595 140.717 270.338 171.535 318.004 171.535H376.25C423.916 171.535 470.66 140.69 470.633 93.649V78.3211C470.633 31.2797 423.889 0.461426 376.223 0.461426ZM419.359 89.6878C419.359 110.17 394.617 126.936 373.863 126.936H320.337C299.583 126.936 274.842 110.17 274.842 89.6878V82.3087C274.842 61.8264 299.583 45.0611 320.337 45.0611H373.863C394.617 45.0611 419.359 61.8264 419.359 82.3087V89.6878Z" fill="white"/>
<path fill-rule="evenodd" clip-rule="evenodd" d="M736.827 45.6034L768.078 0.732422L957.467 0.786732L928.221 46.2274H870.035V171.481H815.07V45.6034H736.827Z" fill="white"/>
<path fill-rule="evenodd" clip-rule="evenodd" d="M979.304 0.515709V171.372L1029.74 171.427V104.365H1129.95V171.372H1177.81L1177.78 0.434326L1129.3 0.461399V61.5826H1029.08V0.488554L979.304 0.515709Z" fill="white"/>
<path d="M1582.22 0.162598H1529.38V171.237H1582.22V0.162598Z" fill="white"/>
<path fill-rule="evenodd" clip-rule="evenodd" d="M1614.73 171.21H1660.3V66.0586L1757.78 157.482C1757.78 157.482 1769.07 171.155 1786.54 171.155C1804.01 171.155 1811.66 156.587 1811.66 153.251C1811.66 149.886 1811.6 0.108643 1811.6 0.108643H1765.84V103.415L1662.8 6.42962C1662.8 6.42962 1651.65 -1.54623 1634.18 0.515557C1616.74 2.60447 1614.73 12.4522 1614.73 19.6413C1614.73 26.8304 1614.73 171.237 1614.73 171.237V171.21Z" fill="white"/>
<path fill-rule="evenodd" clip-rule="evenodd" d="M1843.61 66.4383H1894.54V124.847H1972.13C1972.13 124.847 2004.14 123.11 2004.14 86.1611C2004.14 49.2116 1967.76 42.9719 1967.76 42.9719H1843.61L1872.56 0.0542277C1872.56 0.0542277 1973.78 0 1985.91 0C1998.03 0 2056.88 18.2305 2056.88 85.6456C2056.88 153.06 1993.94 171.047 1983.76 171.047C1973.59 171.047 1843.61 171.101 1843.61 171.101V66.4113V66.4383Z" fill="white"/>
<path fill-rule="evenodd" clip-rule="evenodd" d="M0 171.807H47.693V71.159C47.693 71.159 141.722 155.638 152.086 164.509C162.449 173.38 180.626 175.117 191.07 163.614C200.349 153.387 198.992 139.253 198.992 139.253L199.046 0.48877H151.408L152.004 100.838C152.004 100.838 57.8121 16.2777 46.3637 6.83688C34.9152 -2.57679 16.1147 -0.704903 8.22011 8.19333C0.325546 17.0644 0.0542543 32.1481 0.0542543 32.1481V171.78L0 171.807Z" fill="white"/>
<path fill-rule="evenodd" clip-rule="evenodd" d="M498.904 40.5847L527.362 0.379883H663.141C663.141 0.379883 723.289 12.4793 723.289 59.7374C723.289 106.969 676.736 113.371 676.736 113.371L736.883 171.454H666.398L617.89 122.948H548.713V171.454H494.4V83.3667H637.287C637.287 83.3667 676.082 82.7154 676.082 61.0129C676.082 39.3097 635.338 39.9608 635.338 39.9608L498.904 40.6119V40.5847Z" fill="white"/>
<path fill-rule="evenodd" clip-rule="evenodd" d="M1203.01 0.298208H1252.47L1277.7 101.353L1328.14 11.5295C1328.14 11.5295 1331.66 0.216825 1355.89 0.216825C1380.14 0.216825 1384.18 10.5529 1384.18 10.5529L1432.69 99.0197L1459.06 0.162598H1509.49L1464.51 149.561C1464.51 149.561 1459.08 170.938 1439.69 170.965C1420.29 170.965 1409.03 148.909 1409.03 148.909L1356.27 52.6838L1302.15 150.835C1302.15 150.835 1288.58 171.291 1271.59 171.291C1254.61 171.291 1245.8 155.149 1245.8 155.149L1203.01 0.271136V0.298208Z" fill="white"/>
</svg>
