<?xml version="1.0" encoding="UTF-8"?>
<svg id="Layer_1" data-name="Layer 1" xmlns="http://www.w3.org/2000/svg" viewBox="0 0 331.5 133.01">
  <defs>
    <style>
      .cls-1 {
        fill: none;
        stroke: #000;
        stroke-miterlimit: 10;
        stroke-width: 2px;
      }
    </style>
  </defs>
  <path class="cls-1" d="m1,126.41V27.41S1.12-7.92,34,4.41c8,3,82,73,82,73V1.11s22,2.3,35,11.3v100.93s-5.47,30.69-33.76,13.07c-11.24-7-80.24-72-80.24-72v74l-36,.41v-2.41Z"/>
  <path class="cls-1" d="m164.5,19.91s25,21,35,40c1.32,2.5,27-49,27-49,0,0,4-6,10-8s17.39-3,23.7,0,11.3,13,11.3,13l23,44V2.74l36,.17v110.78s-1,13.22-12,16.22-16.58,4.56-28-8c-10-11-43-77.43-43-77.43l-44,79.43s-6,8.92-17,7.96-19.25-1.16-22-17.83c-2-12.13,0-94.13,0-94.13Z"/>
</svg>